<svg width="54" height="54" fill="none" xmlns="http://www.w3.org/2000/svg"><path d="M26.258 29.686h-3.164v20.412h3.164V29.686zm12.975-9.363H36.07v29.775h3.164V20.323zm12.054-9.918l.387 39.693H48.51l-.387-39.693h3.164zM12.863 37.97l.154 12.127H9.853L9.7 37.971h3.164z" fill="#D4E1F4"/><path d="M1.687 36.705h11.168v-7.652a.633.633 0 01.632-.633h12.77v-8.729a.633.633 0 01.633-.633h12.343V9.772a.633.633 0 01.633-.632h12.047a.633.633 0 01.633.626l.4 40.958a.634.634 0 01-.633.64H1.687a.633.633 0 01-.632-.633V37.338a.633.633 0 01.632-.633zm12.433-7.02v7.653l.163 12.76h11.975V29.686H14.12zm13.403-9.361v29.774h11.71V20.324h-11.71zm23.764-9.919H40.499v39.693h11.174l-.386-39.693zM2.32 50.098h10.697l-.154-12.127H2.32v12.127z" fill="#262626"/><path d="M1.47 28.54a74.198 74.198 0 004.757-1.928c11.027-4.922 20.86-12.56 29.247-22.71H31.56a.633.633 0 110-1.265h5.267l.037.003c.01 0 .019.002.029.003a.546.546 0 01.063.013l.03.007.03.01.028.01.03.015c.01.004.018.007.026.012a.51.51 0 01.031.018l.023.013a.58.58 0 01.03.023l.018.012.003.003c.01.007.018.016.027.024l.02.018.015.016a.632.632 0 01.093.128l.002.003.015.032.012.025.005.012c.017.045.03.09.036.138l.005.027.001.024.002.04v5.319a.633.633 0 01-1.266 0V5.04c-8.451 10.137-18.344 17.78-29.43 22.728a75.287 75.287 0 01-4.838 1.962.632.632 0 11-.435-1.19z" fill="#FF5E5E"/></svg>