<svg width="56" height="59" fill="none" xmlns="http://www.w3.org/2000/svg"><path d="M6.71 4.95c0-1.532 1.027-2.837 2.455-3.315a3.769 3.769 0 00-1.2-.196c-2.014 0-3.653 1.576-3.653 3.511 0 1.936 1.639 3.511 3.654 3.511.407 0 .812-.065 1.199-.195C7.737 7.788 6.71 6.483 6.71 4.95zm2.342 7.622H6.654a5.221 5.221 0 00-5.215 5.215v2.828h2.398v-2.828a5.221 5.221 0 015.215-5.215zm18.483 0h-2.398a5.221 5.221 0 00-5.215 5.215v2.828h2.398v-2.828a5.22 5.22 0 015.215-5.215zM25.192 4.95c0-1.532 1.027-2.837 2.455-3.315a3.769 3.769 0 00-1.2-.196c-2.014 0-3.653 1.576-3.653 3.511 0 1.936 1.639 3.511 3.654 3.511.407 0 .812-.065 1.199-.195-1.427-.478-2.455-1.783-2.455-3.316zm18.484 0c0-1.532 1.027-2.837 2.455-3.315a3.77 3.77 0 00-1.2-.196c-2.014 0-3.653 1.576-3.653 3.511 0 1.936 1.639 3.511 3.653 3.511a3.77 3.77 0 001.2-.195c-1.428-.478-2.455-1.783-2.455-3.316zm2.342 7.622h-2.399a5.22 5.22 0 00-5.215 5.215v2.828h2.399v-2.828a5.22 5.22 0 015.215-5.215z" fill="#D4E1F4"/><path d="M7.965 9.9c2.808 0 5.093-2.22 5.093-4.95S10.773 0 7.965 0 2.872 2.22 2.872 4.95 5.156 9.9 7.965 9.9zm0-8.46c2.015 0 3.654 1.574 3.654 3.51 0 1.936-1.64 3.511-3.654 3.511-2.015 0-3.654-1.575-3.654-3.511 0-1.936 1.64-3.51 3.654-3.51zM.72 22.054h14.49a.72.72 0 00.72-.72v-3.546a6.662 6.662 0 00-6.654-6.654H6.654A6.662 6.662 0 000 17.788v3.547a.72.72 0 00.72.72zm.72-4.266a5.22 5.22 0 015.214-5.215h2.623a5.22 5.22 0 015.214 5.215v2.827H1.44v-2.827zM44.931 9.9c2.809 0 5.093-2.22 5.093-4.95S47.74 0 44.931 0c-2.808 0-5.092 2.22-5.092 4.95S42.123 9.9 44.93 9.9zm0-8.46c2.015 0 3.654 1.574 3.654 3.51 0 1.936-1.639 3.511-3.654 3.511-2.014 0-3.653-1.575-3.653-3.511 0-1.936 1.638-3.51 3.653-3.51zm-7.247 20.614h14.492a.72.72 0 00.72-.72v-3.546a6.662 6.662 0 00-6.654-6.654h-2.623a6.662 6.662 0 00-6.654 6.654v3.547a.72.72 0 00.72.72zm.72-4.266a5.221 5.221 0 015.215-5.215h2.623a5.221 5.221 0 015.215 5.215v2.827H38.403v-2.827zM26.448 9.9c2.808 0 5.093-2.22 5.093-4.95S29.256 0 26.448 0s-5.093 2.22-5.093 4.95S23.64 9.9 26.448 9.9zm0-8.46c2.015 0 3.654 1.574 3.654 3.51 0 1.936-1.64 3.511-3.654 3.511-2.015 0-3.654-1.575-3.654-3.511 0-1.936 1.64-3.51 3.654-3.51zm-7.246 20.614h14.492a.72.72 0 00.72-.72v-3.546a6.662 6.662 0 00-6.655-6.654h-2.622a6.661 6.661 0 00-6.654 6.654v3.547a.72.72 0 00.72.72zm.72-4.266a5.22 5.22 0 015.215-5.215h2.622a5.22 5.22 0 015.215 5.215v2.827H19.922v-2.827zm-7.266 21.983C13.74 46.64 19.849 51.557 26.8 51.557c.75 0 1.497-.056 2.237-.17a14.425 14.425 0 008.879-4.898l3.26 2.364a2.185 2.185 0 00.697 2.737l9.651 6.99a2.265 2.265 0 003.118-.477l.326-.436a2.187 2.187 0 00-.482-3.092l-9.651-6.99a2.269 2.269 0 00-2.786.124l-3.255-2.361a13.584 13.584 0 002.285-9.909c-1.199-7.597-8.547-12.807-16.38-11.616-3.877.59-7.266 2.628-9.541 5.738a13.598 13.598 0 00-2.5 10.21zm30.864 8.83a.81.81 0 01.473.151l9.651 6.99a.757.757 0 01.298.797.74.74 0 01-.128.267l-.325.436a.817.817 0 01-1.124.17l-9.652-6.99a.756.756 0 01-.298-.796.742.742 0 01.128-.267l.326-.436a.81.81 0 01.65-.322zM24.914 25.245a13.428 13.428 0 012.021-.153c6.255 0 11.75 4.41 12.721 10.571a12.168 12.168 0 01-2.24 9.138 12.971 12.971 0 01-8.596 5.164c-7.054 1.073-13.667-3.6-14.742-10.418a12.17 12.17 0 012.24-9.137 12.971 12.971 0 018.596-5.165z" fill="#262626"/><path d="M26.754 35.764c2.581 0 4.681-2.043 4.681-4.553s-2.1-4.552-4.681-4.552c-2.582 0-4.682 2.042-4.682 4.552s2.1 4.553 4.682 4.553zm0-7.666c1.788 0 3.242 1.397 3.242 3.113 0 1.717-1.454 3.114-3.242 3.114-1.789 0-3.243-1.397-3.243-3.114 0-1.716 1.454-3.113 3.243-3.113zm-6.565 18.677h13.129a.72.72 0 00.72-.72V43.4a6.662 6.662 0 00-6.655-6.654h-1.26A6.662 6.662 0 0019.47 43.4v2.655a.72.72 0 00.72.72zm.72-3.375a5.22 5.22 0 015.214-5.215h1.26a5.221 5.221 0 015.215 5.215v1.936h-11.69V43.4z" fill="#FF5E5E"/></svg>