<svg width="70" height="70" fill="none" xmlns="http://www.w3.org/2000/svg"><path d="M12.012 27.542c.327-.458 2.566-1.389 6.868-1.554a36.265 36.265 0 00-1.355-.026c-5.19 0-7.864 1.076-8.223 1.58.36.503 3.033 1.58 8.223 1.58.472 0 .924-.009 1.355-.026-4.302-.165-6.541-1.096-6.867-1.554zm-.02 30.12v-2.9a18.806 18.806 0 01-1.049-.21 9.524 9.524 0 01-1.66-.522v3.632c.262.488 2.938 1.613 8.242 1.613.473 0 .925-.01 1.355-.026-4.406-.17-6.648-1.143-6.888-1.587zm.009-5.523a.78.78 0 00-.009-.087v-3.55a18.238 18.238 0 01-1.027-.192 9.462 9.462 0 01-1.683-.503v4.245a.785.785 0 01.009.087c.288.438 2.7 1.377 8.266 1.46.583.008 1.138-.002 1.667-.028-4.826-.175-6.953-1.023-7.223-1.432zm-.009-6.215v-3.829a18.143 18.143 0 01-1.027-.192 9.455 9.455 0 01-1.683-.504v4.525c.298.433 2.722 1.336 8.279 1.336.4 0 .785-.01 1.159-.026-4.462-.148-6.458-.92-6.728-1.31zm0-6.407V35.69a18.146 18.146 0 01-1.027-.192 9.455 9.455 0 01-1.683-.504v4.524c.298.434 2.722 1.336 8.279 1.336.4 0 .785-.009 1.158-.025-4.46-.148-6.457-.92-6.727-1.31zm0-6.407v-2.848a11.675 11.675 0 01-2.71-.819v3.667c.298.434 2.722 1.337 8.279 1.337.4 0 .785-.01 1.158-.026-4.46-.148-6.457-.92-6.727-1.31zM34.56 21.143c.326-.457 2.565-1.388 6.867-1.554a36.263 36.263 0 00-1.355-.025c-5.19 0-7.864 1.076-8.223 1.58.36.503 3.033 1.58 8.223 1.58.472 0 .924-.01 1.355-.026-4.302-.166-6.541-1.097-6.867-1.555zm-.02 5.568v-2.849a11.676 11.676 0 01-2.71-.818v3.667c.297.434 2.721 1.336 8.278 1.336.4 0 .785-.01 1.159-.025-4.462-.148-6.459-.92-6.728-1.31zm0 6.407v-3.827a18.126 18.126 0 01-1.028-.193 9.456 9.456 0 01-1.683-.503v4.523c.298.434 2.722 1.337 8.279 1.337.4 0 .785-.01 1.159-.026-4.462-.148-6.459-.919-6.728-1.31zm0 6.407v-3.828a18.126 18.126 0 01-1.028-.192A9.456 9.456 0 0131.83 35v4.524c.298.434 2.722 1.336 8.279 1.336.4 0 .785-.01 1.159-.025-4.462-.148-6.459-.92-6.728-1.311zm.008 6.215a.78.78 0 00-.009-.086v-3.55a18.126 18.126 0 01-1.027-.192 9.456 9.456 0 01-1.683-.504v4.246a.78.78 0 01.009.086c.288.438 2.7 1.378 8.266 1.46.58.008 1.134-.002 1.661-.028-4.822-.175-6.948-1.023-7.217-1.432zm2.435 7.024c-1.72-.353-2.324-.767-2.435-.922a.809.809 0 00-.009-.085v-3.392a18.806 18.806 0 01-1.05-.212 9.504 9.504 0 01-1.66-.521v4.126a.809.809 0 01.008.085c.111.154.716.569 2.436.921 1.537.315 3.608.507 5.83.54a28.32 28.32 0 001.644-.029 30.582 30.582 0 01-4.764-.511zm-2.443 4.898v-3.194a18.99 18.99 0 01-1.05-.211 9.521 9.521 0 01-1.66-.522v3.927c.262.488 2.938 1.613 8.242 1.613a16.1 16.1 0 001.032-.041c-4.192-.204-6.331-1.139-6.565-1.572z" fill="#D4E1F4"/><path d="M17.525 60.9c3.666 0 9.869-.676 9.869-3.207v-5.601c.01-.065.014-.13.015-.195a.812.812 0 00-.015-.17V27.541c0-2.53-6.203-3.206-9.869-3.206-3.665 0-9.869.675-9.869 3.206v30.152c0 2.531 6.204 3.206 9.87 3.206zm8.243-28.324c-.241.57-3.273 1.87-8.207 1.87-5.557 0-7.98-.903-8.279-1.337v-3.667c2.092.993 5.753 1.305 8.243 1.305s6.15-.311 8.243-1.305v3.134zm-14.802 2.92c1.694.37 4.036.575 6.595.575 2.442 0 4.794-.308 6.624-.869a9.701 9.701 0 001.583-.623v4.404c-.241.57-3.273 1.87-8.207 1.87-5.557 0-7.98-.903-8.279-1.337v-4.524c.545.22 1.108.388 1.684.504zm0 6.406c1.694.372 4.036.576 6.595.576 2.442 0 4.794-.309 6.624-.869a9.701 9.701 0 001.583-.623v4.404c-.241.569-3.273 1.869-8.207 1.869-5.557 0-7.98-.903-8.279-1.336v-4.524c.545.22 1.108.388 1.684.503zm0 6.407c1.694.372 4.036.576 6.595.576 2.442 0 4.794-.309 6.624-.87a9.701 9.701 0 001.583-.623v4.484c-.332.578-3.36 1.794-8.212 1.721-5.565-.081-7.977-1.021-8.266-1.46a.785.785 0 00-.009-.086v-4.245c.545.22 1.109.388 1.685.503zm6.56 10.964c-5.305 0-7.981-1.125-8.244-1.613v-3.63a9.522 9.522 0 001.661.52c1.69.397 4.03.636 6.59.674l.424.003c2.289 0 4.48-.273 6.208-.775a9.664 9.664 0 001.603-.606v3.815c-.263.489-2.939 1.613-8.243 1.613zm0-33.312c5.19 0 7.863 1.077 8.222 1.58-.36.504-3.033 1.58-8.223 1.58-5.19 0-7.863-1.076-8.222-1.58.359-.503 3.033-1.58 8.222-1.58zM40.072 60.9c.811 0 1.854-.096 2.692-.172.203-.019.395-.036.567-.05a.814.814 0 10-.137-1.62c-.176.014-.37.032-.578.05-.805.074-1.807.165-2.544.165-5.304 0-7.98-1.125-8.243-1.613v-3.926a9.521 9.521 0 001.661.521c1.69.396 4.03.635 6.59.673a31.824 31.824 0 004.48-.269.813.813 0 10-.228-1.61 30.487 30.487 0 01-4.229.254c-2.222-.033-4.292-.225-5.83-.54-1.72-.352-2.324-.767-2.435-.922a.809.809 0 00-.009-.085V47.63a9.504 9.504 0 001.661.522c1.69.396 4.03.635 6.59.672.142.002.283.003.425.003 2.288 0 4.478-.272 6.207-.774a9.654 9.654 0 001.603-.606v2.678a.813.813 0 101.626 0v-4.431a1.6 1.6 0 00.015-.195.812.812 0 00-.015-.17V21.143c0-2.531-6.204-3.207-9.87-3.207-3.664 0-9.868.676-9.868 3.207v36.55c0 2.531 6.204 3.206 9.869 3.206zm8.243-34.722c-.241.569-3.273 1.869-8.207 1.869-5.557 0-7.98-.902-8.279-1.336v-3.667c2.092.993 5.753 1.305 8.243 1.305s6.15-.312 8.243-1.305v3.134zm-14.802 2.92c1.693.37 4.036.575 6.595.575 2.442 0 4.794-.309 6.624-.87a9.714 9.714 0 001.583-.623v4.404c-.241.57-3.273 1.87-8.207 1.87-5.557 0-7.98-.902-8.279-1.336v-4.525c.544.22 1.108.389 1.684.504zm0 6.406c1.693.371 4.036.576 6.595.576 2.442 0 4.794-.309 6.624-.87a9.705 9.705 0 001.583-.623v4.404c-.241.57-3.273 1.87-8.207 1.87-5.557 0-7.98-.903-8.279-1.337v-4.523a9.4 9.4 0 001.684.503zm6.59 11.695c-5.565-.082-7.977-1.022-8.266-1.46a.78.78 0 00-.008-.086v-4.246c.544.22 1.108.389 1.683.504 1.694.371 4.037.576 6.596.576 2.442 0 4.794-.31 6.623-.87a9.704 9.704 0 001.583-.623v4.484c-.33.577-3.355 1.792-8.21 1.72zm-.031-27.636c5.19 0 7.863 1.076 8.222 1.58-.358.503-3.032 1.58-8.222 1.58-5.19 0-7.864-1.077-8.222-1.58.358-.504 3.032-1.58 8.222-1.58z" fill="#262626"/><path d="M40.607 13.478a1.144 1.144 0 00.925-.206L52.77 4.79l-.34 2.963a.812.812 0 001.35.699.813.813 0 00.266-.514l.523-4.565.005-.092a1.083 1.083 0 00-.372-.817 1.093 1.093 0 00-.626-.269l-4.502-.814a.813.813 0 10-.29 1.6l2.97.537-11.027 8.323-10.163-2.156h-.085a1.14 1.14 0 00-.952.512l-6.25 7.864-12.539 2.684a.814.814 0 00.022 1.596.813.813 0 00.319-.005l12.588-2.695a1.143 1.143 0 00.833-.505l6.172-7.765 9.934 2.107zm11.488 35.339c-5.384 0-9.765 4.312-9.765 9.611 0 5.3 4.38 9.611 9.765 9.611 5.385 0 9.766-4.311 9.766-9.61 0-5.3-4.381-9.612-9.766-9.612zm0 17.596c-4.488 0-8.139-3.582-8.139-7.985 0-4.402 3.651-7.984 8.14-7.984 4.487 0 8.139 3.581 8.139 7.984 0 4.403-3.652 7.985-8.14 7.985z" fill="#FF5E5E"/><path d="M52.32 54.933c1.123.046 1.4.94 1.429 1.05a.813.813 0 001.58-.386 3.099 3.099 0 00-2.285-2.201v-.398a.813.813 0 10-1.626 0v.406a2.57 2.57 0 00-1.17.644c-.808.789-.856 1.883-.852 2.2a2.58 2.58 0 00.62 1.626 2.88 2.88 0 001.667.945l.108.02.26.052a3.122 3.122 0 01.168.049.65.65 0 00.03.012l.164.063.015.006c.07.036.092.048.138.075l.095.056.023.014c.089.054.873.549.9 1.208.017.392-.077.684-.287.894-.309.309-.864.432-1.249.416-.41-.017-1.247-.386-1.314-1a.813.813 0 00-1.616.18c.148 1.329 1.31 2.11 2.3 2.359v.304a.813.813 0 001.627 0v-.338a3.068 3.068 0 001.402-.771c.535-.534.798-1.264.763-2.112-.06-1.432-1.294-2.293-1.682-2.53l-.017-.01a.766.766 0 00-.04-.025l-.085-.05a3.672 3.672 0 00-.22-.119 1.77 1.77 0 00-.17-.076l-.15-.057a3.249 3.249 0 00-.487-.145l-.253-.05-.112-.021c-.663-.13-.965-.595-.971-1-.004-.299.088-.743.361-1.01.21-.205.518-.297.936-.28z" fill="#FF5E5E"/></svg>