<svg width="1920" height="1274" fill="none" xmlns="http://www.w3.org/2000/svg"><path opacity=".7" d="M2482.08 15.505C1761.91 153.583 355.949 151.44-180.683 86.45-625.642 289.042-1269.91 677.372-287.31 609.952c1228.252-84.274 2393.58-50.469 2737.35 24.283 343.77 74.752 752.21-756.807 32.04-618.73z" fill="url(#paint0_linear)"/><path opacity=".7" d="M2482.08 650.505C1761.91 788.583 355.949 786.44-180.683 721.449-625.642 924.042-1269.91 1312.37-287.31 1244.95c1228.252-84.27 2393.58-50.47 2737.35 24.29 343.77 74.75 752.21-756.812 32.04-618.735z" fill="url(#paint1_linear)"/><defs><linearGradient id="paint0_linear" x1="1965.46" y1="-2012.75" x2="2005.62" y2="280.626" gradientUnits="userSpaceOnUse"><stop offset=".503" stop-color="#D6DBF3"/><stop offset="1" stop-color="#B9BDD3" stop-opacity="0"/></linearGradient><linearGradient id="paint1_linear" x1="1965.46" y1="-1377.75" x2="2005.62" y2="915.626" gradientUnits="userSpaceOnUse"><stop offset=".503" stop-color="#D6DBF3"/><stop offset="1" stop-color="#B9BDD3" stop-opacity="0"/></linearGradient></defs></svg>